<svg width="24" height="25.355" viewBox="0 0 24 25.355" fill="none" xmlns="http://www.w3.org/2000/svg"><path d="M16.977.006c.237-.011.468-.006.705.004l.244.004c.426.01.834.043 1.253.126l-.016.272c.001.462.139.874.273 1.313.544 1.886.868 3.819 1.079 5.767l.028.235c.098.943.082 1.891.08 2.838q-.001.456.001.911v.584l.001.273-.001.258v.224c-.015.302-.064.601-.108.9l-2.576-.094.095-.943q.016-.467.019-.934l.002-.261.002-.832v-.288c.044-3.505.044-3.505-.883-6.829l-.113.129a65 65 0 0 1-1.032 1.144 62 62 0 0 0-.976 1.082c-.411.463-.832.919-1.25 1.376q-.49.534-.971 1.077c-.467.529-.945 1.049-1.422 1.569-.378.413-.751.827-1.107 1.259.15.381.425.613.728.878l.156.139a83 83 0 0 0 1.026.893c.385.333.764.673 1.144 1.012l.477.424 2.863 2.545.238.211.485.432q.534.479 1.079.948c.379.326.747.661 1.117.997a37 37 0 0 0 .804.711c.324.277.639.562.954.848q.561.512 1.137 1.005c.348.302.687.613 1.027.923.204.194.204.194.412.286-.056.336-.181.5-.418.744l-.195.203-.204.208-.206.213q-.251.26-.504.518a14 14 0 0 1-1.479-1.219l-.378-.352-.179-.167c-.238-.22-.483-.43-.73-.64q-.387-.338-.765-.685a51 51 0 0 0-1.139-1.008c-.335-.291-.663-.59-.993-.887a38 38 0 0 0-.629-.55c-.377-.323-.744-.657-1.111-.991a37 37 0 0 0-.804-.711 43 43 0 0 1-.954-.848 51 51 0 0 0-1.139-1.008c-.335-.291-.663-.59-.993-.887a47 47 0 0 0-.809-.705 27 27 0 0 1-.492-.443l-.153-.14-.297-.276a4.3 4.3 0 0 0-.887-.643l-.214.249a50 50 0 0 1-1.474 1.654 19 19 0 0 0-.924 1.055c-.386.474-.8.916-1.223 1.359-.393.414-.757.842-1.108 1.292-.267.3-.566.549-.877.801l-.275-.234-.363-.308-.181-.154a31 31 0 0 0-.994-.812c.082-.427.335-.662.632-.966l.316-.33.154-.16a18 18 0 0 0 .491-.54 53 53 0 0 1 .745-.831 61 61 0 0 0 .757-.842q.403-.455.817-.901a41 41 0 0 0 1.908-2.215l-.171-.077a2.3 2.3 0 0 1-.535-.396l-.18-.168-.188-.178-.388-.362-.186-.174q-.361-.331-.736-.646-.387-.338-.765-.685a51 51 0 0 0-1.139-1.008 49 49 0 0 1-.721-.642C.859 6.19.859 6.19 0 5.512c.225-.536.709-.856 1.145-1.225l.283-.24c.779-.648.779-.648 1.148-.702.074.412.096.725 0 1.131l.123.105c.479.41.946.832 1.411 1.258q.587.536 1.183 1.062.409.365.814.733l.433.392.401.364.246.222.214.194c.289.241.592.452.902.666.878-.926.878-.926 1.73-1.874q.37-.411.751-.813.543-.576 1.066-1.17c.27-.303.548-.6.824-.897q.633-.683 1.259-1.373.625-.691 1.259-1.373A99 99 0 0 0 16.223.853l.149-.165c.152-.174.152-.174.243-.426.179-.217.179-.217.362-.256" fill="#000"/><path d="M5.343 21.913h7.156v.943H5.343z" fill="#000"/></svg>