<svg width="24" height="27.844" viewBox="0 0 24 27.844" xmlns="http://www.w3.org/2000/svg"><path d="M13.282 0C20.442 0 24 3.408 24 8.851c0 4.072 -2.504 6.727 -5.886 7.169 2.855 0.575 4.524 2.213 4.832 5.444l0.044 0.594 0.039 0.555 0.034 0.52 0.023 0.392 0.025 0.462 0.013 0.264 0.019 0.419 0.015 0.396 0.007 0.228 0.01 0.364 0.009 0.417 0.003 0.201 0.006 0.584 0.002 0.609v0.364H15.811l0 -0.152 0.003 -0.295 0.005 -0.287 0.013 -0.696 0.003 -0.233 0.002 -0.366 0 -0.234 -0.002 -0.245 -0.003 -0.193 -0.006 -0.27 -0.009 -0.286 -0.012 -0.304 -0.015 -0.324 -0.009 -0.17 -0.015 -0.266 -0.017 -0.279 -0.027 -0.394 -0.023 -0.313a11.063 11.063 0 0 0 -0.023 -0.283l-0.019 -0.181c-0.244 -2.14 -1.093 -3.015 -2.547 -3.306l-0.122 -0.023a5.625 5.625 0 0 0 -0.254 -0.038l-0.131 -0.015q-0.033 -0.004 -0.067 -0.007l-0.135 -0.012 -0.138 -0.01 -0.141 -0.008 -0.142 -0.005 -0.145 -0.004 -0.148 -0.002L0 18.632V12.834h11.964q0.293 0 0.569 -0.011l0.181 -0.009 0.178 -0.011 0.173 -0.014 0.085 -0.008 0.167 -0.018a8.063 8.063 0 0 0 0.323 -0.044l0.155 -0.026c1.941 -0.352 2.912 -1.383 2.912 -3.394 0 -2.257 -1.581 -3.625 -4.744 -3.625H0V0zm-5.475 23.511c0.969 0 1.374 0.538 1.518 1.053l0.019 0.074 0.016 0.073 0.01 0.058 0.004 0.029 0.007 0.056 0.005 0.055 0.002 0.027 0.003 0.053 0.001 0.026 0.001 0.051v2.766H0v-4.322z" fill="#121212"/></svg>